<mxfile host="app.diagrams.net" agent="Mozilla/5.0 (Windows NT 10.0; Win64; x64) AppleWebKit/537.36 (KHTML, like Gecko) Chrome/134.0.0.0 YaBrowser/25.4.0.0 Safari/537.36" version="26.2.14">
  <diagram id="C5RBs43oDa-KdzZeNtuy" name="Page-1">
    <mxGraphModel dx="2416" dy="1416" grid="1" gridSize="10" guides="1" tooltips="1" connect="1" arrows="1" fold="1" page="1" pageScale="1" pageWidth="827" pageHeight="1169" math="0" shadow="0">
      <root>
        <mxCell id="WIyWlLk6GJQsqaUBKTNV-0" />
        <mxCell id="WIyWlLk6GJQsqaUBKTNV-1" parent="WIyWlLk6GJQsqaUBKTNV-0" />
        <mxCell id="Ag82hl4MzhfdyCft_LmL-0" value="Airline" style="swimlane;fontStyle=1;align=center;verticalAlign=top;childLayout=stackLayout;horizontal=1;startSize=26;horizontalStack=0;resizeParent=1;resizeParentMax=0;resizeLast=0;collapsible=1;marginBottom=0;whiteSpace=wrap;html=1;" vertex="1" parent="WIyWlLk6GJQsqaUBKTNV-1">
          <mxGeometry x="150" y="880" width="160" height="150" as="geometry" />
        </mxCell>
        <mxCell id="Ag82hl4MzhfdyCft_LmL-1" value="-&amp;nbsp;name&lt;div&gt;-&amp;nbsp;icaoCode&lt;/div&gt;&lt;div&gt;-&amp;nbsp;fleetSize&lt;br&gt;&lt;div&gt;&lt;br&gt;&lt;/div&gt;&lt;/div&gt;" style="text;strokeColor=none;fillColor=none;align=left;verticalAlign=top;spacingLeft=4;spacingRight=4;overflow=hidden;rotatable=0;points=[[0,0.5],[1,0.5]];portConstraint=eastwest;whiteSpace=wrap;html=1;" vertex="1" parent="Ag82hl4MzhfdyCft_LmL-0">
          <mxGeometry y="26" width="160" height="54" as="geometry" />
        </mxCell>
        <mxCell id="Ag82hl4MzhfdyCft_LmL-2" value="" style="line;strokeWidth=1;fillColor=none;align=left;verticalAlign=middle;spacingTop=-1;spacingLeft=3;spacingRight=3;rotatable=0;labelPosition=right;points=[];portConstraint=eastwest;strokeColor=inherit;" vertex="1" parent="Ag82hl4MzhfdyCft_LmL-0">
          <mxGeometry y="80" width="160" height="8" as="geometry" />
        </mxCell>
        <mxCell id="Ag82hl4MzhfdyCft_LmL-3" value="+&amp;nbsp;Airline()&lt;div&gt;+ getName()&lt;/div&gt;&lt;div&gt;+&amp;nbsp;getIcaoCode()&lt;/div&gt;&lt;div&gt;&lt;span style=&quot;background-color: transparent; color: light-dark(rgb(0, 0, 0), rgb(255, 255, 255));&quot;&gt;+ getFleetSize()&lt;/span&gt;&lt;/div&gt;" style="text;strokeColor=none;fillColor=none;align=left;verticalAlign=top;spacingLeft=4;spacingRight=4;overflow=hidden;rotatable=0;points=[[0,0.5],[1,0.5]];portConstraint=eastwest;whiteSpace=wrap;html=1;" vertex="1" parent="Ag82hl4MzhfdyCft_LmL-0">
          <mxGeometry y="88" width="160" height="62" as="geometry" />
        </mxCell>
        <mxCell id="Ag82hl4MzhfdyCft_LmL-4" value="Flight" style="swimlane;fontStyle=1;align=center;verticalAlign=top;childLayout=stackLayout;horizontal=1;startSize=26;horizontalStack=0;resizeParent=1;resizeParentMax=0;resizeLast=0;collapsible=1;marginBottom=0;whiteSpace=wrap;html=1;" vertex="1" parent="WIyWlLk6GJQsqaUBKTNV-1">
          <mxGeometry x="390" y="780" width="160" height="240" as="geometry" />
        </mxCell>
        <mxCell id="Ag82hl4MzhfdyCft_LmL-5" value="-&amp;nbsp;flightNumber&lt;div&gt;-&amp;nbsp;departureTime&lt;/div&gt;&lt;div&gt;-&amp;nbsp;arrivalTime&lt;/div&gt;&lt;div&gt;-&amp;nbsp;aircraftType&lt;/div&gt;&lt;div&gt;-&amp;nbsp;isApproved&lt;/div&gt;" style="text;strokeColor=none;fillColor=none;align=left;verticalAlign=top;spacingLeft=4;spacingRight=4;overflow=hidden;rotatable=0;points=[[0,0.5],[1,0.5]];portConstraint=eastwest;whiteSpace=wrap;html=1;" vertex="1" parent="Ag82hl4MzhfdyCft_LmL-4">
          <mxGeometry y="26" width="160" height="84" as="geometry" />
        </mxCell>
        <mxCell id="Ag82hl4MzhfdyCft_LmL-6" value="" style="line;strokeWidth=1;fillColor=none;align=left;verticalAlign=middle;spacingTop=-1;spacingLeft=3;spacingRight=3;rotatable=0;labelPosition=right;points=[];portConstraint=eastwest;strokeColor=inherit;" vertex="1" parent="Ag82hl4MzhfdyCft_LmL-4">
          <mxGeometry y="110" width="160" height="8" as="geometry" />
        </mxCell>
        <mxCell id="Ag82hl4MzhfdyCft_LmL-7" value="+&amp;nbsp;Flight()&lt;div&gt;+&amp;nbsp;requestSlot()&lt;br&gt;+&amp;nbsp;approve()&lt;br&gt;+&amp;nbsp;getFlightNumber()&lt;br&gt;+&amp;nbsp;getAirline()&lt;br&gt;+&amp;nbsp;getDepartureTime()&lt;br&gt;+&amp;nbsp;getAircraftType()&lt;br&gt;+&amp;nbsp;getIsApproved()&lt;/div&gt;" style="text;strokeColor=none;fillColor=none;align=left;verticalAlign=top;spacingLeft=4;spacingRight=4;overflow=hidden;rotatable=0;points=[[0,0.5],[1,0.5]];portConstraint=eastwest;whiteSpace=wrap;html=1;" vertex="1" parent="Ag82hl4MzhfdyCft_LmL-4">
          <mxGeometry y="118" width="160" height="122" as="geometry" />
        </mxCell>
        <mxCell id="Ag82hl4MzhfdyCft_LmL-8" value="SlotRequest" style="swimlane;fontStyle=1;align=center;verticalAlign=top;childLayout=stackLayout;horizontal=1;startSize=26;horizontalStack=0;resizeParent=1;resizeParentMax=0;resizeLast=0;collapsible=1;marginBottom=0;whiteSpace=wrap;html=1;" vertex="1" parent="WIyWlLk6GJQsqaUBKTNV-1">
          <mxGeometry x="140" y="600" width="160" height="150" as="geometry" />
        </mxCell>
        <mxCell id="Ag82hl4MzhfdyCft_LmL-9" value="-&amp;nbsp;applicationDate&lt;div&gt;-&amp;nbsp;status&lt;/div&gt;" style="text;strokeColor=none;fillColor=none;align=left;verticalAlign=top;spacingLeft=4;spacingRight=4;overflow=hidden;rotatable=0;points=[[0,0.5],[1,0.5]];portConstraint=eastwest;whiteSpace=wrap;html=1;" vertex="1" parent="Ag82hl4MzhfdyCft_LmL-8">
          <mxGeometry y="26" width="160" height="34" as="geometry" />
        </mxCell>
        <mxCell id="Ag82hl4MzhfdyCft_LmL-10" value="" style="line;strokeWidth=1;fillColor=none;align=left;verticalAlign=middle;spacingTop=-1;spacingLeft=3;spacingRight=3;rotatable=0;labelPosition=right;points=[];portConstraint=eastwest;strokeColor=inherit;" vertex="1" parent="Ag82hl4MzhfdyCft_LmL-8">
          <mxGeometry y="60" width="160" height="8" as="geometry" />
        </mxCell>
        <mxCell id="Ag82hl4MzhfdyCft_LmL-11" value="+ SlotRequest()&lt;div&gt;+&amp;nbsp;approve()&lt;/div&gt;&lt;div&gt;+&amp;nbsp;checkAvailability()&lt;/div&gt;&lt;div&gt;+&amp;nbsp;getApplicationDate()&lt;/div&gt;&lt;div&gt;+&amp;nbsp;getStatus()&lt;/div&gt;" style="text;strokeColor=none;fillColor=none;align=left;verticalAlign=top;spacingLeft=4;spacingRight=4;overflow=hidden;rotatable=0;points=[[0,0.5],[1,0.5]];portConstraint=eastwest;whiteSpace=wrap;html=1;" vertex="1" parent="Ag82hl4MzhfdyCft_LmL-8">
          <mxGeometry y="68" width="160" height="82" as="geometry" />
        </mxCell>
        <mxCell id="Ag82hl4MzhfdyCft_LmL-12" value="Airport" style="swimlane;fontStyle=1;align=center;verticalAlign=top;childLayout=stackLayout;horizontal=1;startSize=26;horizontalStack=0;resizeParent=1;resizeParentMax=0;resizeLast=0;collapsible=1;marginBottom=0;whiteSpace=wrap;html=1;" vertex="1" parent="WIyWlLk6GJQsqaUBKTNV-1">
          <mxGeometry x="480" y="560" width="160" height="150" as="geometry" />
        </mxCell>
        <mxCell id="Ag82hl4MzhfdyCft_LmL-13" value="-&amp;nbsp;airlines&lt;div&gt;-&amp;nbsp;flights&lt;br&gt;-&amp;nbsp;runwayCount&lt;/div&gt;" style="text;strokeColor=none;fillColor=none;align=left;verticalAlign=top;spacingLeft=4;spacingRight=4;overflow=hidden;rotatable=0;points=[[0,0.5],[1,0.5]];portConstraint=eastwest;whiteSpace=wrap;html=1;" vertex="1" parent="Ag82hl4MzhfdyCft_LmL-12">
          <mxGeometry y="26" width="160" height="54" as="geometry" />
        </mxCell>
        <mxCell id="Ag82hl4MzhfdyCft_LmL-14" value="" style="line;strokeWidth=1;fillColor=none;align=left;verticalAlign=middle;spacingTop=-1;spacingLeft=3;spacingRight=3;rotatable=0;labelPosition=right;points=[];portConstraint=eastwest;strokeColor=inherit;" vertex="1" parent="Ag82hl4MzhfdyCft_LmL-12">
          <mxGeometry y="80" width="160" height="8" as="geometry" />
        </mxCell>
        <mxCell id="Ag82hl4MzhfdyCft_LmL-15" value="+ Airport()&lt;br&gt;+&amp;nbsp;addAirline()&lt;div&gt;+&amp;nbsp;processSlotRequest()&lt;br&gt;+&amp;nbsp;displayFlightSchedule()&lt;/div&gt;" style="text;strokeColor=none;fillColor=none;align=left;verticalAlign=top;spacingLeft=4;spacingRight=4;overflow=hidden;rotatable=0;points=[[0,0.5],[1,0.5]];portConstraint=eastwest;whiteSpace=wrap;html=1;" vertex="1" parent="Ag82hl4MzhfdyCft_LmL-12">
          <mxGeometry y="88" width="160" height="62" as="geometry" />
        </mxCell>
      </root>
    </mxGraphModel>
  </diagram>
</mxfile>
